/* XPM */
static char *top_active_stretch[] = {
/* columns rows colors chars-per-pixel */
"310 29 96 2 ",
"   c #212424",
".  c #4E4E4E",
"X  c #504F4F",
"o  c #4F504F",
"O  c #50504F",
"+  c #4F4F50",
"@  c #504F50",
"#  c #4F5050",
"$  c #535353",
"%  c #575857",
"&  c #585857",
"*  c #575758",
"=  c #585758",
"-  c #5B5B5B",
";  c #605F5F",
":  c #5F605F",
">  c #60605F",
",  c #5F5F60",
"<  c #605F60",
"1  c #5F6060",
"2  c #646364",
"3  c #686767",
"4  c #676867",
"5  c #676768",
"6  c #686768",
"7  c #6C6B6C",
"8  c #706F6F",
"9  c #6F6F70",
"0  c #706F70",
"q  c #6F7071",
"w  c #747374",
"e  c #787777",
"r  c #787877",
"t  c #777778",
"y  c #787778",
"u  c #777879",
"i  c #7C7B7C",
"p  c #807F7F",
"a  c #80807F",
"s  c #7F7F80",
"d  c #807F80",
"f  c #7F8081",
"g  c #848384",
"h  c #888787",
"j  c #878788",
"k  c #888788",
"l  c #87898A",
"z  c #8C8B8C",
"x  c #908F8F",
"c  c #8E8E90",
"v  c #908F90",
"b  c #8F9193",
"n  c #949394",
"m  c #989797",
"M  c #979798",
"N  c #989798",
"B  c #97999B",
"V  c #9C9B9C",
"C  c #A09E9F",
"Z  c #9F9FA0",
"A  c #A09FA0",
"S  c #9EA1A3",
"D  c #A3A2A3",
"F  c #A4A7A9",
"G  c #A6A8AB",
"H  c #A7A9AC",
"J  c #A8ABAD",
"K  c #ABADAF",
"L  c #ABAEB0",
"P  c #ACAFB1",
"I  c #AEB1B4",
"U  c #B0B3B5",
"Y  c #B1B4B7",
"T  c #B3B5B8",
"R  c #B4B7B9",
"E  c #B5B9BB",
"W  c #B7BABC",
"Q  c #B8BBBD",
"!  c #B9BCBF",
"~  c #BBBEC1",
"^  c #BCBFC2",
"/  c #BDC0C3",
"(  c #BEC2C5",
")  c #C0C3C6",
"_  c #C1C4C7",
"`  c #C2C6C8",
"'  c #C4C7CA",
"]  c #C5C8CB",
"[  c #C7CACD",
"{  c #C8CCCE",
"}  c #CACED1",
"|  c #CBD0D3",
" . c #CCD0D3",
".. c #CDD1D4",
"X. c #D0D4D7",
"o. c #D1D5D8",
/* pixels */
"                                                                                                                                                                                                                                                                                                                                                                                                                                                                                                                                                                                                                                            ",
"7 7 7 7 7 7 7 7 9 9 q q w w w w w w w t t t t u u u i i i i i s s s s f g g g g g g j j l l l z z z c c c c b b n n n n M B B B B B B V Z Z S S S D D F F G F G J J J K K L L L I I U Y Y T T R E E Q Q W W ! ~ ~ ^ / / ( ( ) _ ` ` ` ` ] ] ] ] ] [ [ { } } } } }  .|  . .................X.X.X.o.o.o.o.o.o.o.o.o.o.o.o.o.o.o.o.o.o.o.o.o.o.X.X.X............... . . .| } } } } { { { ] ] ] ] ] ] ] ' ` ` ` ` ) ( ( / / ^ ~ ~ ! ! ! Q Q E E R T T Y Y U I I P P K K K J J H F F F F F D D S S S Z Z V V B B B B M M n n n n b b b b c z z z z l l l l j g g g g g g f s s s s i i i i i u u u t t t t w w w w w w w q q 9 7 7 7 7 7 7 7 7 7 ",
". . . . . . . X # $ $ $ $ $ $ $ $ $ $ $ $ $ $ $ $ & & & & & - - - - - - - - ; 2 2 2 2 2 2 2 2 2 2 2 6 6 6 6 7 7 7 7 7 7 w w w w w w t t t t y u u u u i i i i d a g g g g g g j j j h l k l l l z z z z z z v n n n n n n n n n n n M N B B B B B B V V V V V C V V A A D D D D D D D D D D D D D D D D D D D D D D D D D D D D D D D D D D D D D D D D D D A A D D A A V V V V V V V V B B B B B N N N m m n n n n n n n n n v n z z z z z l l l l l h j j j j g g g g g a i i i i i i u u u y t t t t w w w w w w 7 7 7 7 7 7 6 6 6 6 5 2 2 2 2 2 2 2 2 2 ; - - - - - - - - & & & & & & * $ $ $ $ $ $ $ $ $ $ $ $ $ $ $ # . . . . . . . . ",
". . . . . . . X O $ $ $ $ $ $ $ $ $ $ $ $ $ $ $ $ & & & & & - - - - - - - - < 2 2 2 2 2 2 2 2 2 2 6 6 6 6 6 7 7 7 7 7 7 8 w w w w w t w t t e u u u u i i i i g s g g g g g j j j j j k k l l l z z z z z z n n n n n n n n n n n n n N B B B B B V V V V V V V V V A A D D D D D D D D D D D D D D D D D D D D D D D D D D D D D D D D D D D D D D D D D D D A D D A A V V V V V V V V V B B B B B N m m n n n n n n n n n n n v x z z z z l l l l k k j j j g g g g g g s i i i i i u u u u e t t t t w w w w w 8 7 7 7 7 7 7 6 6 6 6 6 2 2 2 2 2 2 2 2 2 1 - - - - - - - & & & & & & & * $ $ $ $ $ $ $ $ $ $ $ $ $ $ $ O X . . . . . . . ",
". . . . . . . + . . . @ $ $ $ $ $ $ $ $ $ $ $ * $ & & & & & & - - - - - - - ; 2 2 2 2 2 2 2 2 2 2 3 6 6 6 6 7 7 7 7 7 9 0 w w w w w t t t t u u u u i i i i i d i a d g g g j j j h h k l l l z z z z z z x v n n n n n n n n n n m m N B B B B B V V V V V V V V Z A A A D D D D D D D D D D D D D D D D D D D D D D D D D D D D D D D D D D D D D D D D D D A D A A D Z V V V V V V V V V B B B B N m m n n n n n n n n n n c x z z z z z z l l l k h h j j g g g g g g s i i i i i i u u u u t t t t w w w w w w w 7 7 7 7 6 6 6 6 6 6 3 2 2 2 2 2 2 2 2 - - 1 , - - - - - & & & & & & * $ $ $ $ $ $ $ $ $ $ $ $ $ $ $ o + . . . . . . . ",
". . . . . . . . . . . $ $ $ $ $ $ $ $ $ $ $ $ = $ & & & & & & - - - - - - - 2 2 2 2 2 2 2 2 2 2 2 2 6 6 6 6 7 7 7 7 7 7 w w w w w w t t t t y u u u i i i i i i s s d g g g j j j j h k l l z z z z z z z x v n n n n n n n n n n m N N B B B B B B V V V V V V V V V A A D A D D D D D D D D D D D D D D D D D D D D D D D D D D D D D D D D D D D D D D D D D D A A D V V Z V V V V V V V B B B B N N m n n n n n n n n n x z x z z z z z z z l l k h j j j j g g g g g s i i i i i i u u u y t t t t w w w w w w 8 9 7 7 7 6 6 6 6 6 6 6 2 2 2 2 2 2 2 2 2 2 - - - - - - - & & & & & & $ $ $ $ $ $ $ $ $ $ $ $ $ $ $ $ $ . . . . . . . . ",
". . . . . . . @ . . O $ $ $ $ $ $ $ $ $ $ $ $ * $ * & & & & - - - - - - - 1 2 2 2 2 2 2 2 2 2 2 2 4 6 6 6 6 7 7 7 7 7 7 7 7 w w w w t t t t e u u i i i i i i i d a g g g g j j j h k k l l z z z z z z z v n n n n n n n n n n m m N B B B B B B V V V V V V V V Z V A D C A D D D D D D D D D D D D D D D D D D D D D D D D D D D D D D D D D D D D D D D D D D D D D A Z V V V V V V V V B B B B B N m n n n n n n n n v z z z z z z z z z z l l k k h j j j g g g g g d i i i i i i i u u e t t t w w w w w w 0 w 8 7 7 7 6 6 6 6 6 6 4 2 2 2 2 2 2 2 2 2 2 1 - - - - - - - & & & & % & * $ $ $ $ $ $ $ $ $ $ $ $ $ . . @ . . . . . . . ",
". . . . . . . X O o + $ $ $ $ $ $ $ $ $ $ $ $ & * = & & & & & - - - - - - 2 2 2 2 2 2 2 2 2 2 2 2 6 6 6 6 6 7 7 7 7 7 7 7 9 w w w w t t t t e r u u i i i i i i i g g g g g g j j h k k l l l z z z z z v n n n n n n n n n n n m m N N B V B B V V V V V V V V V V Z A A V A A D D D D D D D D D D D D D D D D D D D D D D D D D D D D D D D D D D D D D D D D V Z D D A A V V V V V V V V B B B B N N m m n n n n n n n v v z v z z z z z z l l l k k h j j g g g g g g i i i i i i i u u u y t t t t w w w w w w 9 7 7 7 7 6 6 6 6 6 6 4 2 2 2 2 2 2 2 2 2 - 2 - - - - - - & & & & & & = & $ $ $ $ $ $ $ $ $ $ $ $ $ . o X . . . . . . . ",
". . . . . . . X O $ @ $ $ $ $ $ $ $ $ $ $ $ $ & = & & & & & - - - - - - - - > 2 2 2 2 2 2 2 2 2 6 6 6 6 6 6 7 7 7 7 0 8 w w w w w w w t t t e u u u i i i i i p i g g g g g g j j j j l l l l z z z z z z z n n n n n n n n n n n n N N B B B B B V V V V V V Z V A A D A A D D D D D D D D D D D D D D D D D D D D D D D D D D D D D D D D D D D D D D D D D D A D C A D V V V V V V V V V B B B B N N N N n n n n n n n n n n v v z z z z z l l k h j j j j j g g g g g d p i i i u u u u u u t t t w w w w w w w 7 7 7 7 7 7 6 6 6 6 3 2 2 2 2 2 2 2 2 < ; - 2 , - - - - - - & & & & & & & $ $ $ $ $ $ $ $ $ $ $ $ X . . . . . . . . . . ",
". . . . . . . X @ $ $ $ $ $ $ $ $ $ $ $ $ $ $ = = & & & & & & - - - - - - - , 2 2 2 2 2 2 2 2 2 3 6 6 6 6 6 7 7 7 7 9 0 0 w w w w w w t t t t u u u i i i i i d p g g g g g g g j j h l l l z z z z z z z c v n n n n n n n n n n n M N B B B V B V V V V V V V V A D D C A D D D D D D D D D D D D D D D D D D D D D D D D D D D D D D D D D D D D D D D D A D A C A C C A V V V V V V V V V B B B N N B M n n n n n n n n n v c z z z z z z z l l k h j j j g g g g g g g i i i i i u u u u y t t t w w w w w w 7 7 7 7 7 7 7 7 6 6 6 4 2 2 2 2 2 2 2 2 2 - - 2 ; - - - - - & & & & & & & = $ $ $ $ $ $ $ $ $ $ $ + # . . X . . . . . . . ",
". . . . . . . . # $ $ $ $ $ $ $ $ $ $ $ $ $ $ $ = * & & & & - - - - - - - - 1 , 2 2 2 2 2 2 2 2 5 6 6 6 6 6 6 7 7 7 8 0 0 w w w w w w t t t y u u u u i i i i g s g g g g g j j j j j k l l l z z z z z z z v n n n n n n n n n n n N N B B B V B V V V V V V V V Z D D Z A D A A D D D D D D D D D D D D D D D D D D D D D D D D D D D D D D D D D D D D D D D D D A A A Z V V V V V V V V V V B B B N B N n n n n n n n n n v z x z z z z z l l l k j j j g g g g g g g g g i i i i u u u u y t t t w w w w w w 7 7 7 7 7 7 7 7 6 6 6 6 5 2 2 2 2 2 2 2 2 2 - - - - - - - - & & & & & & & $ $ $ $ $ $ $ $ $ $ $ $ O + $ # . . . . . . . . ",
". . . . . . . . $ $ $ $ $ $ $ $ $ $ $ $ $ $ $ $ * & & & & & & - - - - - - - 2 2 2 2 2 2 2 2 2 2 2 3 6 6 6 6 7 7 7 7 9 w 7 w w w w t w t t t e u u u u i i i i s d g g g g g j j j j k l l l l z z z z z z c v n n n n n n n n n n n n N B B B B B B V V V V V A V C D D A D D D D D D D D D D D D D D D D D D D D D D D D D D D D D D D D D D D D D D D D D D A D A A C D A A V V V V V V V B B B N B B B m n n n n n n n n b x c z z z z z l l l l l k j j g g g g g g g g i i i i i u u u u e t t t w w w w w w 7 7 7 7 7 7 7 7 6 6 6 3 2 2 2 2 2 2 2 2 2 2 2 - - - - - - & & & & & & & $ $ $ $ $ $ $ $ $ $ $ $ $ # . $ $ . . . . . . . . ",
". . . . . . . . . + X X $ $ $ $ $ $ $ $ $ $ $ * * & & & & & & - - - - - - 2 2 2 2 2 2 2 2 2 2 2 4 3 6 6 6 6 7 7 7 7 7 7 7 9 w w w w w t t e u u u u i i i i i p i p g g g g j j j j j h l l l z z z z z z z v v n n n n n n n n n m m N B B B B B V V V V V V V V V A D D D D A D D D D D D D D D D D D D D D D D D D D D D D D D D D D D D D D D D D D D D A A A D V C V V V V V V V V V B B B B B N m n n n n n n n n n v v z x x z z z z l l l l l j j j g g g g g g a i i i i i i i u u u u t t t w w w w w w 8 7 8 7 7 7 6 6 6 6 6 3 2 2 2 2 2 2 2 2 2 2 2 - - - - - - - & & & & & & = $ $ $ $ $ $ $ $ $ $ $ $ $ $ $ # . . . . . . . . ",
". . . . . . . o X . . @ $ $ $ $ $ $ $ $ $ $ $ * * = & & & & & - - - - - - 2 , 2 2 2 2 2 2 2 2 2 2 3 6 6 6 7 7 7 7 7 7 7 8 8 w w w w t t t e y u u i i i i i i d i i g g g g g j j j j k k l l l z z z z z z v n n n n n n n n n n m N N B B B B B B V V V V V C V V A D D D D A D D D D D D D D D D D D D D D D D D D D D D D D D D D D D D D D D D D D D D A A D D V V V V C V V V V V B B B B B B m N n n n n n n n n n n x z v x z z z z z l l l k k j j g g g g g g f i i i i i i i i u u y t t t w w w w w w 0 7 7 7 7 7 6 6 6 6 6 3 2 2 2 2 2 2 2 2 2 2 , 2 - - - - - - - & & & & = = * $ $ $ $ $ $ $ $ $ $ $ $ $ $ O o . . . . . . . ",
". . . . . . . X O $ . O $ $ $ $ $ $ $ $ $ $ $ $ $ & & & & & - - - - - - ; 2 2 2 2 2 2 2 2 2 2 2 4 6 6 6 6 6 7 7 7 7 7 7 w w w w w t t t t e u u u u i i i i i d i a g g g g g j j j h h l l l l z z z z z z v n n n n n n n n n n m N N B B B B V V V V V V V C V V A A A A D D D D D D D D D D D D D D D D D D D D D D D D D D D D D D D D D D D D D D D D A D A A A Z V V V V V V V V V B B B B B m m n n n n n n n n n n c v v z z z z z z l l l k h j j j g g g g g i s i i i i i i u u u u t t t w t w w w w w w 7 7 7 7 7 6 6 6 6 6 4 2 2 2 2 2 2 2 2 - < 2 ; - - - - - - & & & & & * $ $ $ $ $ $ $ $ $ $ $ $ $ $ . O X . . . . . . . ",
". . . . . . . @ # $ o O $ $ $ $ $ $ $ $ $ $ $ $ $ $ & & & & - - - - - - - < 2 2 2 2 2 2 2 2 2 2 2 5 6 6 6 7 7 7 7 7 7 7 0 w w w w w t t t e u u u u i i i i i i i f g g g g g j j j j l l l l z z z z z z z v v n n n n n n n n m m N N B B B V V V V V V V V V V V V A A D D D D D D D D D D D D D D D D D D D D D D D D D D D D D D D D D D D D D D D D D A D D A A V Z V Z V V V V V B B B B B B N m n n n n n n n n n v x x x x z z z z z l l l l k j j j j g g g d s s i i i i i i u u u u t t t t w w w w w 0 w 8 7 7 7 7 7 6 6 6 6 5 2 2 2 2 2 2 2 2 ; , < - - - - - - - & & & & * * * $ $ $ $ $ $ $ $ $ $ $ $ $ $ . @ . . . . . . . ",
". . . . . . . X O $ . $ $ $ $ $ $ $ $ $ $ $ $ $ * % & & & & - - - - - - - - 2 2 2 2 2 2 2 2 2 2 2 4 6 6 6 6 6 7 7 7 7 8 w w w w w w t t t t e u u u u i i i i i i a g g g g j j j h k k l l l z z z z z z x v n n n n n n n n n n n N B B B B B B B V V V V V C A C Z D V A D D D D D D D D D D D D D D D D D D D D D D D D D D D D D D D D D D D D D D D D D D A A D D V V V V V V V V V V B B B B m m m m n n n n n n n n v z z z z z z z z l l l k k h j j j g g g g g s i i i i i i u u u y t t t t w w w w w 7 7 7 7 7 7 6 6 6 6 6 4 4 2 2 2 2 2 2 2 2 2 : < - - - - - - - & & & & % * * $ $ $ $ $ $ $ $ $ $ $ $ $ $ . X . . . . . . . ",
". . . . . . . o $ $ X X $ $ $ $ $ $ $ $ $ $ $ $ $ = & & & & - - - - - - - - < 2 2 2 2 2 2 2 2 2 2 5 6 6 6 6 6 7 7 7 0 w w w w w w w t t t t e y u u u i i i i p p d g g g g g j j h k l l l l z z z z z x x n n n n n n n n n n n n B B B B B B B B V V V V V V V C Z D V A D D D D D D D D D D D D D D D D D D D D D D D D D D D D D D D D D D D D D D D D D D A D D A C V V V V V V V V V B B B B m m m m n n n n n n n n z z x z z z z z z l l l l k h j j g g g g g d p i i i i i i u u u y t t t t w w w w w 8 7 7 7 7 7 7 7 6 6 6 5 2 2 2 2 2 2 2 2 2 2 < < , - - - - - & & & & & = * $ $ $ $ $ $ $ $ $ $ $ $ $ $ . . . . . . . . . . ",
". . . . . . . o @ $ $ $ $ $ $ $ $ $ $ $ $ $ $ $ $ & & & & & & - - - - - - - 2 2 2 2 2 2 2 2 2 2 4 5 6 6 6 6 7 7 7 7 8 0 7 w w w w w t t t t t e u u u i i i i d p a d g g g j j j h h k l l l z z z z z z v n n n n n n n n n n n n N B B B B B V V V V V V V C V V Z A V C D D D D D D D D D D D D D D D D D D D D D D D D D D D D D D D D D D D D D D D D D A D A D D D A C V V V V V V V B B B B B m n n n n n n n n n n n x v z z z z z z z l l k j h j j j g g g g g g i i i i i u u u u y t t t t w w w w w 7 7 7 7 7 7 7 7 6 6 6 5 4 2 2 2 2 2 2 2 < 2 - 2 - - - - - & & & & & & & & $ $ $ $ $ $ $ $ $ $ $ $ $ . . . . . . . . . . . ",
". . . . . . . + o $ $ $ $ $ $ $ $ $ $ $ $ $ $ $ $ * & & & & - - - - - - - - 2 2 2 2 2 2 2 2 2 2 2 6 6 6 6 6 7 7 7 7 0 w 7 8 w w w w t w t t t u u u u i i i i d i p g g g g j j j j k l l l l z z z z z z z n n v n n n n n n n n n N B B B B V B B V V V V V C V V V V C Z D D D D D D D D D D D D D D D D D D D D D D D D D D D D D D D D D D D D D D D D A A D A A A A Z C V V V V V V V V B B B N N n n n n n n n n n n n v z z z z z z z l l l l j j j j j g g g g g g i i i i i i u u u e t t t t w w w w w 0 8 7 7 7 7 7 6 6 6 6 6 2 2 2 2 2 2 2 2 2 1 - 2 , - - - - & & & & & & & & & $ $ $ $ $ $ $ $ $ $ $ # . . . . . . . . . . . ",
". . . . . . . . . . X $ $ $ $ $ $ $ $ $ $ $ $ = * % & & & & & - - - - - - - < 2 2 2 2 2 2 2 2 2 2 5 6 6 6 6 7 7 7 7 7 7 7 w w w w w t t t t y u u i i i i i i p p p g g g g g j j j j l l l z z z z z z z z v x n n n n n n n n n m m N B B B B V V V V V V V C V V C A D D D D D D D D D D D D D D D D D D D D D D D D D D D D D D D D D D D D D D D D D D D A D V V V A A C V V V V V V V B B B B B B n n n n n n n n n n n x x x z z z z z z l k k j j j j g g g g g d d g i i i i i i u u y t t t t w w w w w 0 w 7 7 7 7 7 6 6 6 6 6 2 2 2 2 2 2 2 2 2 - - < - - - - - - & & & & & & & = $ $ $ $ $ $ $ $ $ $ $ + X $ O . . . . . . . . ",
". . . . . . . . . . O $ $ $ $ $ $ $ $ $ $ $ $ & & & & & & & - - - - - - - - < 2 2 2 2 2 2 2 2 2 2 2 6 6 6 7 7 7 7 7 7 7 7 w w w w w w t t t r u u u i i i i i p p g g g g g g j j j j k l l l z z z z z z z v n n n n n n n n n m m N N N B B V V V V V V V V V V V A D A A D D D D D D D D D D D D D D D D D D D D D D D D D D D D D D D D D D D D D D D D A A D V D V C C V V V V V V V V V B B N N B n m n n n n n n n n n z z x z z z z l l l l h j j j j g g g g g g d p i i i i i u u u r t t t w w w w w w 0 8 7 7 7 7 6 6 6 6 6 6 6 2 2 2 2 2 2 2 2 2 < 2 - - - - - - - & & & & & & & $ $ $ $ $ $ $ $ $ $ $ O X $ O . . . . . . . . ",
". . . . . . . . . . $ $ $ $ $ $ $ $ $ $ $ $ $ % & * & & & & - - - - - - - - - - 2 2 2 2 2 2 2 2 2 4 6 6 6 6 7 7 7 7 7 7 q w w w w w t t t t r r u u i i i i i p p g g g g g g j j j k k l l l z z z z z z x v n n n n n n n n n m m N N B B B B V V V V V V V A C A D D A A D D D D D D D D D D D D D D D D D D D D D D D D D D D D D D D D D D D D D D D D D D D D A A A V V V V V V V V V B B B B B B N m n n n n n n n n v z x z z z z z z l l k k h j j j g g g g g g p i i i i i i u u u u t t t w w w w w w w 8 7 7 7 7 7 6 6 6 6 6 6 2 2 2 2 2 2 2 2 2 , - - - - - - - - & & & & & & $ $ $ $ $ $ $ $ $ $ $ $ $ $ $ o . . . . . . . . ",
". . . . . . . o . . + # $ $ $ $ $ $ $ $ $ $ $ * * & & & & & - - - - - - - - ; - < 2 2 2 2 2 2 2 4 4 6 6 6 6 7 7 7 7 7 7 0 w w w w w t t t t e r u u i i i i i p d d g g g g g j j j h k l l l z z z z z x n v n n n n n n n n n n m N N B B B V V V V V V V V C V A D D A A A A D D D D D D D D D D D D D D D D D D D D D D D D D D D D D D D D D D D D D D D D A A A A V V V V V V V V V B B B B B B B B n n n n n n n n n x z n x z z z z z l l l k h j j j g g g g g d d i i i i i i u u u u t t t w w w w w w w 8 7 7 7 7 7 7 6 6 6 6 5 2 2 2 2 2 2 2 2 2 ; - - - - - - - - & & & & & * $ $ $ $ $ $ $ $ $ $ $ $ $ $ $ @ o . . . . . . . ",
". . . . . . . . @ $ $ $ $ $ $ $ $ $ $ $ $ $ $ = & & & & & & - - - - - - - 2 2 2 2 2 2 2 2 2 2 2 3 6 6 6 6 6 7 7 7 7 7 0 w w w w w w t w t t e u u u i i i i i i s d g g g g j j j h h l l l l z z z z z z x v n n n n n n n n n n M N N B B B V V V V V V V V C V C D D D D D D D D D D D D D D D D D D D D D D D D D D D D D D D D D D D D D D D D D D D A D D D D V A V V V V V V V V V B V B B B N N N m n n n n n n n v v x n z z z z z l l l l l h j j j j g g g g p i i i i i i i u u u e t t t t w w w w w w 7 7 7 7 7 7 6 6 6 6 4 2 2 2 2 2 2 2 2 2 2 2 - : - - - - - & & & & & * * $ $ $ $ $ $ $ $ $ $ $ $ $ $ $ @ . . . . . . . . ",
". . . . . . . + + $ $ $ $ $ $ $ $ $ $ $ $ $ $ % & & & & & & - - - - - - - < 2 2 2 2 2 2 2 2 2 2 5 6 6 6 6 6 6 7 7 7 7 w w w w w w w w t t t t u u u i i i i i i s p g g g g g g j h j l l l l z z z z z z v c n n n n n n n n n n n M N B B B V V V V V V V V V V Z A A D D D D D D D D D D D D D D D D D D D D D D D D D D D D D D D D D D D D D D D D D A D D D D V V Z V V V V V V V V B B B B B N N m n n n n n n n n n v z n x z z z z l l l l l k j j j g g g g g p i i i i i i i u u u y t t t w w w w w w 0 7 7 7 7 7 7 7 6 6 6 6 5 2 2 2 2 2 2 2 2 2 < < - - - - - - - & & & & = * $ $ $ $ $ $ $ $ $ $ $ $ $ $ $ + + . . . . . . . ",
". . . . . . . . @ $ $ $ $ $ $ $ $ $ $ $ $ $ $ $ $ * & & & & & - - - - - - - 2 2 2 2 2 2 2 2 2 2 6 6 6 6 6 6 7 7 7 7 0 w 0 w w w w t t t t t t r u u i i i i i i i d g g g g g g j j k l l l l z z z z z z z v n v n n n n n n n m n m N B B B B B V V V V V V C V V A A V Z D D D D D D D D D D D D D D D D D D D D D D D D D D D D D D D D D D D D D D D D D D D Z A A A C V V V V V V V V B B B N N m m m n n n n n n n n n v z z z z z z z l l l k h j j j g g g g g d s i i i i i u u u u y t t t w t w w w w 0 7 7 7 7 7 7 6 6 6 6 6 2 2 2 2 2 2 2 2 2 2 < 2 ; - - - - - & & & & & & * * $ $ $ $ $ $ $ $ $ $ $ $ $ O @ . . . . . . . . ",
". . . . . . . + @ $ $ $ $ $ $ $ $ $ $ $ $ $ $ $ $ & & & & & & - - - - - - - 2 2 2 2 2 2 2 2 2 2 4 5 6 6 6 6 6 7 7 7 9 w 7 w w w w t t t t t y u u u i i i i i i i s g g g g g j j h k l l l l l z z z z z v v n v n n n n n n n n m m N B B B B B V V V V V V V V C A A V C D D D D D D D D D D D D D D D D D D D D D D D D D D D D D D D D D D D D D D D D D D A A A A C A V V V V V V V V V B B B m m m n n n n n n n n n n v v z z z z z z l l l l h h j j g g g g g g s i i i i i u u u u y t t t t w w w w w 7 7 7 7 7 7 7 6 6 6 6 6 5 2 2 2 2 2 2 2 2 2 2 2 - - - - - - & & & & & & & $ $ $ $ $ $ $ $ $ $ $ $ $ $ . . . . . . . . . . ",
". . . . . . . . . . . @ $ $ $ $ $ $ $ $ $ $ $ $ * & & & & & & - - - - - - - - - 2 2 2 2 2 2 2 2 2 4 6 6 6 6 7 7 7 7 7 7 7 7 w w w w t t e e u u u u i i i i i i s d g g g g g j j j l l l l l l z z z z v n n n n n n n n n n n n n N N B B B B B B V V V V V V V C V V Z Z A A D D D D D D D D D D D D D D D D D D D D D D D D D D D D D D D D D D D D D D D D D D D D A Z Z V V V V V B B B B B B N N n n n n n n n n n n n v c z z z z z z z l l k h j j j g g g g g g g d s i i i u u y y e t t t w w w w w w w 7 7 7 7 7 7 6 6 6 6 2 2 2 2 2 2 2 2 2 2 2 - 1 - - - - - & & & & & = & $ $ $ $ $ $ $ $ $ $ $ $ $ @ . . . . . . . . . . . "
};
